<svg width="44" height="44" viewBox="0 0 44 44" fill="none" xmlns="http://www.w3.org/2000/svg">
<g clip-path="url(#clip0_6_1119)">
<path fill-rule="evenodd" clip-rule="evenodd" d="M17 18V17C17 15.6739 17.5268 14.4021 18.4645 13.4645C19.4021 12.5268 20.6739 12 22 12C23.3261 12 24.5979 12.5268 25.5355 13.4645C26.4732 14.4021 27 15.6739 27 17V18H32V32H12V22C12 20.9391 12.4214 19.9217 13.1716 19.1716C13.9217 18.4214 14.9391 18 16 18H17ZM19 17C19 16.2044 19.3161 15.4413 19.8787 14.8787C20.4413 14.3161 21.2044 14 22 14C22.7956 14 23.5587 14.3161 24.1213 14.8787C24.6839 15.4413 25 16.2044 25 17V18H19V17ZM17 20V23H19V20H25V23H27V20H30V30H14V22C14 21.4696 14.2107 20.9609 14.5858 20.5858C14.9609 20.2107 15.4696 20 16 20H17Z" fill="#0D1421"/>
</g>
<defs>
<clipPath id="clip0_6_1119">
<rect width="24" height="24" fill="white" transform="translate(10 10)"/>
</clipPath>
</defs>
</svg>
