<svg width="44" height="44" viewBox="0 0 44 44" fill="none" xmlns="http://www.w3.org/2000/svg">
<g clip-path="url(#clip0_6_1113)">
<path fill-rule="evenodd" clip-rule="evenodd" d="M24.85 24.2819C26.0253 23.6476 26.9555 22.6393 27.493 21.4167C28.0306 20.1941 28.1449 18.8271 27.8178 17.5322C27.4907 16.2373 26.7409 15.0886 25.6872 14.2679C24.6335 13.4473 23.3361 13.0017 22.0005 13.0017C20.6649 13.0017 19.3675 13.4473 18.3138 14.2679C17.2601 15.0886 16.5103 16.2373 16.1832 17.5322C15.8561 18.8271 15.9704 20.1941 16.508 21.4167C17.0455 22.6393 17.9757 23.6476 19.151 24.2819C15.962 24.8669 13 26.2299 13 26.9999V30.9999H31V26.9999C31 26.2299 28.038 24.8679 24.85 24.2819ZM26 18.9999C26 20.0608 25.5786 21.0782 24.8284 21.8283C24.0783 22.5785 23.0609 22.9999 22 22.9999C20.9391 22.9999 19.9217 22.5785 19.1716 21.8283C18.4214 21.0782 18 20.0608 18 18.9999C18 17.939 18.4214 16.9216 19.1716 16.1715C19.9217 15.4213 20.9391 14.9999 22 14.9999C23.0609 14.9999 24.0783 15.4213 24.8284 16.1715C25.5786 16.9216 26 17.939 26 18.9999ZM29 27.7479V28.9999H15V27.7479C15.377 27.5299 15.947 27.2679 16.673 27.0079C18.269 26.4379 20.287 25.9999 22 25.9999C23.713 25.9999 25.73 26.4379 27.327 27.0089C28.053 27.2679 28.623 27.5299 29 27.7489V27.7479Z" fill="#0D1421"/>
</g>
<defs>
<clipPath id="clip0_6_1113">
<rect width="24" height="24" fill="white" transform="translate(10 10)"/>
</clipPath>
</defs>
</svg>
